<?xml version="1.0" standalone="no"?>
<!DOCTYPE svg PUBLIC "-//W3C//DTD SVG 1.1//EN" "http://www.w3.org/Graphics/SVG/1.1/DTD/svg11.dtd" >
<svg xmlns="http://www.w3.org/2000/svg">
<metadata>Generated by IcoMoon</metadata>
<defs>
<font id="icomoon" horiz-adv-x="1024">
<font-face units-per-em="1024" ascent="960" descent="-64" />
<missing-glyph horiz-adv-x="1024" />
<glyph unicode="&#x20;" horiz-adv-x="512" d="" />
<glyph unicode="&#xe900;" glyph-name="chevron-down" d="M225.835 524.502l256-256c16.683-16.683 43.691-16.683 60.331 0l256 256c16.683 16.683 16.683 43.691 0 60.331s-43.691 16.683-60.331 0l-225.835-225.835-225.835 225.835c-16.683 16.683-43.691 16.683-60.331 0s-16.683-43.691 0-60.331z" />
<glyph unicode="&#xe901;" glyph-name="chevron-left" d="M670.165 200.832l-225.835 225.835 225.835 225.835c16.683 16.683 16.683 43.691 0 60.331s-43.691 16.683-60.331 0l-256-256c-16.683-16.683-16.683-43.691 0-60.331l256-256c16.683-16.683 43.691-16.683 60.331 0s16.683 43.691 0 60.331z" />
<glyph unicode="&#xe902;" glyph-name="chevron-right" d="M414.165 140.502l256 256c16.683 16.683 16.683 43.691 0 60.331l-256 256c-16.683 16.683-43.691 16.683-60.331 0s-16.683-43.691 0-60.331l225.835-225.835-225.835-225.835c-16.683-16.683-16.683-43.691 0-60.331s43.691-16.683 60.331 0z" />
<glyph unicode="&#xe903;" glyph-name="chevron-up" d="M798.165 328.832l-256 256c-16.683 16.683-43.691 16.683-60.331 0l-256-256c-16.683-16.683-16.683-43.691 0-60.331s43.691-16.683 60.331 0l225.835 225.835 225.835-225.835c16.683-16.683 43.691-16.683 60.331 0s16.683 43.691 0 60.331z" />
<glyph unicode="&#xe904;" glyph-name="addcam" d="M453.12 111.787c0 0-94.72-7.68-138.24-17.92-35.84-10.24-66.56-17.92-76.8-33.28v0c-5.12-5.12-5.12-10.24-5.12-17.92 0-5.12 15.36-25.6 97.28-43.52 74.24-17.92 176.64-15.36 179.2-15.36 0 0 104.96-2.56 179.2 15.36 81.92 17.92 97.28 38.4 97.28 43.52 0 7.68 0 15.36-5.12 17.92v0l-2.56 2.56c-10.24 15.36-40.96 25.6-76.8 33.28-40.96 10.24-135.68 17.92-138.24 17.92-12.8 2.56-15.36 25.6-15.36 84.48 0 2.56 0 5.12 0 5.12 0 2.56-5.12 5.12-28.16 7.68v-102.4h-30.72v102.4c-20.48-2.56-28.16-7.68-28.16-7.68s0-2.56 0-5.12c7.68-58.88 5.12-84.48-7.68-87.040zM555.52 339.627c0 51.2 23.040 97.28 76.8 151.040 5.12 5.12 10.24 10.24 15.36 15.36 43.52 43.52 89.6 89.6 89.6 192 0 117.76-102.4 217.6-222.72 217.6s-222.72-99.84-222.72-217.6c0-104.96 46.080-148.48 89.6-192 5.12-5.12 10.24-10.24 15.36-15.36 53.76-53.76 76.8-99.84 76.8-151.040 0-40.96-2.56-66.56-2.56-81.92 0-5.12 0-7.68 0-10.24 2.56-2.56 25.6-5.12 46.080-5.12s43.52 2.56 46.080 5.12c0 2.56 0 5.12 0 10.24-7.68 12.8-7.68 38.4-7.68 81.92zM501.76 214.187v-99.84h17.92v120.32h-17.92v-20.48zM803.84 75.947c10.24-12.8 10.24-28.16 10.24-35.84 0-20.48-20.48-48.64-117.76-71.68-61.44-12.8-140.8-15.36-171.52-15.36-7.68 0-10.24 0-12.8 0s-5.12 0-12.8 0c-30.72 0-110.080 2.56-171.52 15.36-97.28 23.040-120.32 51.2-120.32 71.68 0 10.24 0 25.6 12.8 38.4 15.36 23.040 48.64 33.28 92.16 43.52 35.84 7.68 99.84 15.36 128 17.92 2.56 7.68 2.56 25.6 2.56 58.88 0 2.56 0 5.12 0 7.68 0 10.24 5.12 17.92 10.24 23.040-10.24 7.68-12.8 15.36-12.8 23.040 0 2.56 0 5.12 0 12.8 0 12.8 2.56 38.4 2.56 79.36 0 46.080-20.48 81.92-66.56 133.12-5.12 5.12-10.24 10.24-12.8 12.8-46.080 46.080-99.84 97.28-99.84 212.48 0 133.12 115.2 245.76 250.88 245.76s250.88-112.64 250.88-245.76c0-115.2-51.2-166.4-99.84-212.48-5.12-5.12-10.24-10.24-12.8-12.8-48.64-48.64-66.56-87.040-66.56-133.12 0-40.96 0-66.56 2.56-79.36 0-5.12 0-10.24 0-12.8 0-7.68-2.56-15.36-12.8-23.040 5.12-5.12 10.24-12.8 10.24-23.040 0-2.56 0-2.56 0-7.68 0-33.28 0-48.64 2.56-58.88 28.16-2.56 94.72-10.24 128-17.92 38.4-12.8 71.68-23.040 87.040-46.080zM524.8 800.427c-5.12 0-7.68-2.56-7.68-7.68s2.56-7.68 7.68-7.68c5.12 0 7.68 2.56 7.68 7.68s-2.56 7.68-7.68 7.68zM524.8 779.947c-7.68 0-12.8 5.12-12.8 12.8s5.12 12.8 12.8 12.8 12.8-5.12 12.8-12.8c0-7.68-5.12-12.8-12.8-12.8zM512 651.947c25.6 0 43.52 20.48 43.52 43.52s-20.48 43.52-43.52 43.52-46.080-17.92-46.080-43.52c0-23.040 20.48-43.52 46.080-43.52zM512 751.787c30.72 0 56.32-25.6 56.32-56.32s-25.6-53.76-56.32-53.76c-30.72 0-56.32 25.6-56.32 53.76 0 30.72 25.6 56.32 56.32 56.32zM512 516.267c99.84 0 181.76 81.92 181.76 179.2 0 99.84-81.92 179.2-181.76 179.2s-181.76-81.92-181.76-179.2c0-99.84 81.92-179.2 181.76-179.2zM704 695.467c0-104.96-87.040-192-194.56-192s-192 87.040-192 192c0 107.52 87.040 192 194.56 192s192-84.48 192-192z" />
<glyph unicode="&#xe905;" glyph-name="earth" d="M778.624 885.24c-241.094 147.018-556.848 70.478-703.864-170.616s-70.478-556.848 170.616-703.864c13.432-8.19 27.102-15.676 40.956-22.492 0.224-0.108 0.45-0.222 0.678-0.328 71.606-35.088 148.254-51.94 224.148-51.94 172.824 0 341.712 87.334 438.084 245.376 147.016 241.096 70.476 556.848-170.618 703.864zM387.752 866.248l-6.25-24.834-133.532-75.152-27.23 6.852c47.624 42.778 104.348 74.6 167.012 93.134zM264.712 314.868l-7.184-7.95c-22.346-24.728-31.936-57.754-26.316-90.604l20.242-118.298c-81.738 60.63-139.21 147.080-163.48 247.202-18.328 75.612-16.238 152.958 5.208 225.634l125.712-71.944c12.464-7.134 18.722-21.84 15.216-35.768-9.058-35.994 0.76-73.582 26.262-100.544l3.842-4.062c11.458-12.114 11.676-31.296 0.498-43.666zM530.744 11.98l-7.834 47.808 6.312 2.798c22.776 10.094 49.378 2.414 63.26-18.27l14.806-22.060c-25.422-5.704-51.016-9.126-76.544-10.276zM884.512 220.848c-48.206-79.054-118.594-139.402-202.282-174.65-0.646 1.244-1.354 2.468-2.156 3.662l-24.64 36.71c-34.438 51.31-100.44 70.372-156.938 45.328l-33.096-14.672c-15.774-6.996-24.834-23.758-22.044-40.786l9.998-61.002c-39.958 5.406-79.104 16.432-116.482 32.902l-30.93 180.762c-1.676 9.786 1.182 19.624 7.84 26.988l7.184 7.95c37.526 41.532 36.794 105.922-1.666 146.588l-3.842 4.062c-7.596 8.032-10.52 19.226-7.824 29.95 11.764 46.75-9.242 96.124-51.080 120.070l-135.294 77.426c5.582 11.192 11.64 22.214 18.228 33.018 7.254 11.892 15.022 23.352 23.248 34.38l81.396-20.482c3.050-0.768 6.156-1.148 9.25-1.148 6.462 0 12.874 1.652 18.592 4.872l160.904 90.558c9.062 5.1 15.634 13.698 18.168 23.784l17.708 70.37c0.402 1.6 0.66 3.2 0.85 4.796 14.41 1.436 28.82 2.194 43.19 2.194 79.16 0 157.048-21.702 226.35-63.964 8.070-4.92 15.924-10.096 23.598-15.472-0.048-0.054-0.102-0.096-0.15-0.146l-61.75-67.496-162.738-6.318c-12.59-0.488-24.114-7.202-30.75-17.91l-70.892-114.398c-8.234-13.286-7.47-30.26 1.924-42.752l44.872-59.674c9.29-12.356 14.362-27.672 14.282-43.13l-0.402-77.802c-0.16-30.772 13.218-59.826 36.698-79.716 18.916-16.026 42.622-24.6 66.978-24.6 5.876 0 11.794 0.5 17.688 1.514l86.42 14.87c31.836 5.476 61.408 21.59 83.268 45.37 13.046 14.19 30.842 22.346 50.106 22.96 19.244 0.644 37.544-6.384 51.472-19.712l24.306-23.262c3.172-3.036 6.746-5.37 10.526-7.088-10.176-29.324-23.542-57.774-40.088-84.904zM944.472 388.692l-2.282 2.184c-28.762 27.528-66.51 41.992-106.314 40.718-39.796-1.272-76.552-18.112-103.498-47.426-10.584-11.512-24.9-19.312-40.312-21.964l-86.42-14.87c-11.19-1.924-19.090 3.070-22.808 6.216-3.718 3.148-9.944 10.126-9.886 21.474l0.402 77.8c0.164 31.928-10.314 63.566-29.5 89.086l-29.292 38.956 46.624 75.238 158.414 6.148c10.118 0.392 19.662 4.816 26.498 12.29l72.442 79.17c0.806 0.88 1.546 1.794 2.254 2.726 56.178-56.040 96.064-126.58 115.232-205.656 13.070-53.922 15.75-108.726 8.446-162.090z" />
<glyph unicode="&#xe906;" glyph-name="menu" d="M128 384h768c23.552 0 42.667 19.115 42.667 42.667s-19.115 42.667-42.667 42.667h-768c-23.552 0-42.667-19.115-42.667-42.667s19.115-42.667 42.667-42.667zM128 640h768c23.552 0 42.667 19.115 42.667 42.667s-19.115 42.667-42.667 42.667h-768c-23.552 0-42.667-19.115-42.667-42.667s19.115-42.667 42.667-42.667zM128 128h768c23.552 0 42.667 19.115 42.667 42.667s-19.115 42.667-42.667 42.667h-768c-23.552 0-42.667-19.115-42.667-42.667s19.115-42.667 42.667-42.667z" />
<glyph unicode="&#xe907;" glyph-name="sign_down" d="M665.6 17.92v122.88c37.547 20.48 68.267 58.027 88.747 112.64s30.72 126.293 30.72 218.453v37.547h-157.013v368.64h368.64v-276.48c0-167.253-27.307-300.373-81.92-399.36-58.027-92.16-139.947-157.013-249.173-184.32zM47.787 17.92v122.88c37.547 20.48 68.267 58.027 88.747 112.64s30.72 126.293 30.72 218.453v37.547h-157.013v368.64h368.64v-276.48c0-167.253-27.307-300.373-81.92-399.36-58.027-92.16-139.947-157.013-249.173-184.32z" />
<glyph unicode="&#xe908;" glyph-name="sign_top" d="M341.333 878.080v-122.88c-37.547-20.48-68.267-58.027-88.747-112.64s-30.72-126.293-30.72-218.453v-37.547h157.013v-368.64h-368.64v276.48c0 167.253 27.307 300.373 81.92 399.36 58.027 92.16 139.947 157.013 249.173 184.32zM959.147 878.080v-122.88c-37.547-20.48-68.267-58.027-88.747-112.64s-30.72-126.293-30.72-218.453v-37.547h157.013v-368.64h-368.64v276.48c0 167.253 27.307 300.373 81.92 399.36 58.027 92.16 139.947 157.013 249.173 184.32z" />
<glyph unicode="&#xe909;" glyph-name="x" d="M225.835 652.502l225.835-225.835-225.835-225.835c-16.683-16.683-16.683-43.691 0-60.331s43.691-16.683 60.331 0l225.835 225.835 225.835-225.835c16.683-16.683 43.691-16.683 60.331 0s16.683 43.691 0 60.331l-225.835 225.835 225.835 225.835c16.683 16.683 16.683 43.691 0 60.331s-43.691 16.683-60.331 0l-225.835-225.835-225.835 225.835c-16.683 16.683-43.691 16.683-60.331 0s-16.683-43.691 0-60.331z" />
<glyph unicode="&#xe90a;" glyph-name="Social_blog" d="M1009.371 813.714c-21.943 51.2-36.571 73.143-138.971 73.143-51.2 0-95.086-36.571-95.086-95.086 0-43.886 36.571-87.771 58.514-138.971 21.943-43.886 36.571-73.143 36.571-138.971 0-21.943-7.314-51.2-14.629-87.771l-80.457-248.686-190.171 555.886c-7.314 0-14.629 0-21.943 0 21.943 0 43.886 7.314 65.829 7.314s36.571 14.629 36.571 36.571-21.943 43.886-36.571 43.886c-73.143-14.629-153.6-14.629-226.743 0-21.943 0-36.571-14.629-36.571-36.571s14.629-43.886 29.257-43.886c14.629 0 36.571-7.314 51.2-7.314-7.314 0-14.629 0-14.629 0l80.457-219.429-117.029-343.771-197.486 563.2c-7.314 0-21.943 0-29.257 0 21.943 0 36.571 7.314 58.514 7.314s36.571 14.629 36.571 36.571-14.629 43.886-36.571 43.886c-65.829-14.629-124.343-14.629-190.171 0-21.943 0-36.571-21.943-36.571-43.886s14.629-36.571 36.571-36.571c7.314 0 7.314 0 14.629 0l234.057-665.6c7.314-29.257 36.571-58.514 65.829-65.829 43.886-14.629 95.086 14.629 109.714 65.829l124.343 380.343 131.657-380.343c14.629-36.571 43.886-58.514 80.457-36.571 21.943 7.314 36.571 21.943 43.886 43.886l138.971 431.543c29.257 73.143 36.571 146.286 36.571 197.486v29.257c7.314 29.257 0 51.2-7.314 73.143z" />
<glyph unicode="&#xe90b;" glyph-name="Social_fb" d="M750.933 946.347v-150.187h-88.747c-34.133 0-54.613-6.827-68.267-20.48s-20.48-34.133-20.48-61.44v-109.227h170.667l-20.48-170.667h-143.36v-436.907h-177.493v436.907h-143.36v170.667h143.36v122.88c0 68.267 20.48 122.88 61.44 163.84s95.573 61.44 157.013 61.44c54.613 0 102.4-6.827 129.707-6.827z" />
<glyph unicode="&#xe90c;" glyph-name="Social_tw" d="M897.969 707.938c47.262 23.631 78.769 63.015 94.523 118.154-47.262-23.631-94.523-47.262-133.908-47.262-39.385 47.262-94.523 63.015-149.662 63.015s-110.277-23.631-149.662-63.015c-47.262-39.385-63.015-86.646-63.015-149.662 0-23.631 0-39.385 7.877-47.262-173.292 7.877-315.077 78.769-425.354 220.554-23.631-31.508-39.385-63.015-39.385-102.4 0-78.769 31.508-133.908 94.523-173.292-31.508 0-63.015 7.877-94.523 23.631v0c0-47.262 15.754-94.523 47.262-133.908s70.892-63.015 118.154-70.892c-15.754-7.877-39.385-7.877-55.138-7.877-7.877 0-23.631 0-39.385 7.877 15.754-39.385 39.385-78.769 70.892-102.4 39.385-23.631 78.769-39.385 118.154-39.385-78.769-63.015-165.415-86.646-259.938-86.646-7.877 0-23.631 0-47.262 7.877 102.4-78.769 212.677-110.277 322.954-110.277 181.169 0 322.954 63.015 433.231 181.169 110.277 126.031 165.415 259.938 165.415 409.6v31.508c39.385 31.508 78.769 70.892 102.4 110.277-31.508-23.631-78.769-31.508-118.154-39.385z" />
<glyph unicode="&#xe90d;" glyph-name="Social_u2" d="M1016.123 652.8c7.877-70.892 7.877-141.785 7.877-212.677s0-141.785-7.877-212.677c0-47.262-15.754-86.646-39.385-118.154-31.508-31.508-63.015-47.262-102.4-47.262-110.277-7.877-228.431-7.877-362.338-7.877s-252.062 0-354.462 7.877c-39.385 0-78.769 15.754-102.4 47.262-31.508 31.508-39.385 70.892-39.385 118.154-15.754 70.892-15.754 141.785-15.754 212.677 0 47.262 0 118.154 7.877 212.677 0 47.262 15.754 86.646 39.385 118.154s63.015 39.385 110.277 39.385c94.523 7.877 212.677 7.877 338.708 7.877h31.508c126.031 0 244.185 0 338.708-7.877 39.385 0 78.769-15.754 102.4-47.262s47.262-63.015 47.262-110.277zM417.477 243.2l291.446 196.923-291.446 196.923v-393.846z" />
<glyph unicode="&#xe90e;" glyph-name="talk" d="M981.628 48.993c-35.31 17.655-60.028 52.966-74.152 77.683 77.683 95.338 120.055 218.924 112.993 346.041s-60.028 247.172-148.303 338.979c-95.338 95.338-222.455 148.303-360.166 148.303s-264.828-52.966-360.166-151.834c-98.869-95.338-151.834-222.455-151.834-360.166s52.966-264.828 148.303-360.166c98.869-98.869 225.986-151.834 363.697-151.834 81.214 0 162.428 21.186 236.579 56.497 67.090-45.903 134.179-56.497 176.552-56.497 14.124 0 28.248 0 42.372 3.531 24.717 3.531 42.372 24.717 45.903 45.903 3.531 28.248-7.062 52.966-31.779 63.559zM780.359 66.648c0 0 0 0 0 0-14.124 14.124-35.31 14.124-49.434 7.062-169.49-98.869-388.414-70.621-526.124 67.090-81.214 81.214-127.117 190.676-127.117 307.2s45.903 225.986 127.117 307.2c81.214 81.214 190.676 127.117 307.2 127.117s225.986-45.903 307.2-127.117c162.428-162.428 169.49-423.724 17.655-596.745-3.531-7.062-7.062-14.124-10.593-21.186s0-17.655 3.531-24.717c14.124-28.248 35.31-67.090 67.090-98.869-31.779 7.062-74.152 21.186-116.524 52.966zM512 500.966c-28.248 0-52.966-24.717-52.966-52.966s24.717-52.966 52.966-52.966c28.248 0 52.966 24.717 52.966 52.966s-24.717 52.966-52.966 52.966zM335.448 500.966c-28.248 0-52.966-24.717-52.966-52.966s24.717-52.966 52.966-52.966c28.248 0 52.966 24.717 52.966 52.966s-24.717 52.966-52.966 52.966zM688.552 500.966c-28.248 0-52.966-24.717-52.966-52.966s24.717-52.966 52.966-52.966 52.966 24.717 52.966 52.966c0 28.248-24.717 52.966-52.966 52.966z" />
<glyph unicode="&#xe90f;" glyph-name="user" d="M177.493 250.027c116.053 47.787 232.107 68.267 334.507 68.267s218.453-20.48 334.507-68.267c116.053-47.787 177.493-109.227 177.493-184.32v-129.707h-1024v129.707c0 75.093 61.44 136.533 177.493 184.32zM696.32 523.093c-54.613-47.787-116.053-75.093-184.32-75.093s-129.707 27.307-184.32 75.093c-47.787 47.787-68.267 109.227-68.267 177.493s27.307 129.707 75.093 184.32c47.787 47.787 109.227 75.093 177.493 75.093s129.707-27.307 184.32-75.093c47.787-47.787 75.093-109.227 75.093-184.32-6.827-68.267-27.307-129.707-75.093-177.493z" />
<glyph unicode="&#xe910;" glyph-name="minus" d="M213.333 384h597.333c23.552 0 42.667 19.115 42.667 42.667s-19.115 42.667-42.667 42.667h-597.333c-23.552 0-42.667-19.115-42.667-42.667s19.115-42.667 42.667-42.667z" />
<glyph unicode="&#xe911;" glyph-name="plus" d="M213.333 384h256v-256c0-23.552 19.115-42.667 42.667-42.667s42.667 19.115 42.667 42.667v256h256c23.552 0 42.667 19.115 42.667 42.667s-19.115 42.667-42.667 42.667h-256v256c0 23.552-19.115 42.667-42.667 42.667s-42.667-19.115-42.667-42.667v-256h-256c-23.552 0-42.667-19.115-42.667-42.667s19.115-42.667 42.667-42.667z" />
<glyph unicode="&#xe912;" glyph-name="shopping-cart" d="M665.6 102.4c0-56.525 45.773-102.4 102.4-102.4 56.525 0 102.4 45.875 102.4 102.4 0 56.627-45.875 102.4-102.4 102.4-56.627 0-102.4-45.773-102.4-102.4zM153.6 102.4c0-56.525 45.824-102.4 102.4-102.4 56.474 0 102.4 45.875 102.4 102.4 0 56.627-45.926 102.4-102.4 102.4-56.576 0-102.4-45.773-102.4-102.4zM335.206 349.594l566.682 161.894c10.803 3.123 19.712 14.797 19.712 26.112v281.6h-716.8v81.92c0 11.264-9.267 20.48-20.429 20.48h-163.942c-11.213 0-20.429-9.216-20.429-20.48v-81.92h102.4l97.792-458.598 4.608-48.282v-84.429c0-11.213 9.216-20.48 20.48-20.48h675.84c11.264 0 20.48 9.318 20.48 20.48v79.309h-575.898c-58.88 0-60.109 28.211-10.496 42.394z" />
<glyph unicode="&#xe913;" glyph-name="logout---anticon" horiz-adv-x="985" d="M0 432.246c0 7.877 3.938 19.692 7.877 23.631l129.969 129.969c7.877 7.877 15.754 11.815 23.631 11.815s19.692-3.938 23.631-11.815c7.877-7.877 11.815-15.754 11.815-23.631s-3.938-19.692-11.815-23.631l-70.892-70.892h460.8c7.877 0 19.692-3.938 23.631-11.815 7.877-7.877 11.815-15.754 11.815-23.631s-3.938-19.692-11.815-23.631c-7.877-7.877-15.754-11.815-23.631-11.815h-456.862l70.892-70.892c7.877-7.877 11.815-15.754 11.815-23.631s-3.938-19.692-11.815-23.631c-7.877-7.877-15.754-11.815-23.631-11.815s-19.692 3.938-23.631 11.815l-129.969 129.969c-7.877 7.877-11.815 15.754-11.815 23.631zM216.615 767.015c-7.877 0-15.754 7.877-23.631 15.754-3.938 7.877-7.877 15.754-7.877 23.631s3.938 15.754 11.815 23.631c86.646 63.015 185.108 94.523 291.446 94.523 66.954 0 129.969-11.815 192.985-39.385 59.077-23.631 110.277-59.077 157.538-106.338s82.708-98.462 106.338-157.538c27.569-59.077 39.385-126.031 39.385-192.985s-11.815-129.969-39.385-192.985c-23.631-59.077-59.077-110.277-106.338-157.538s-98.462-82.708-157.538-106.338c-59.077-27.569-126.031-39.385-192.985-39.385-106.338 0-204.8 31.508-291.446 94.523-7.877 3.938-11.815 11.815-11.815 23.631 0 7.877 0 19.692 7.877 23.631s11.815 11.815 23.631 15.754c7.877 0 19.692 0 23.631-7.877 74.831-55.138 157.538-82.708 248.123-82.708 59.077 0 114.215 11.815 165.415 35.446 51.2 19.692 94.523 51.2 133.908 90.585s70.892 82.708 90.585 133.908c23.631 51.2 31.508 106.338 31.508 165.415s-11.815 114.215-35.446 165.415c-19.692 51.2-51.2 94.523-90.585 133.908s-82.708 70.892-133.908 90.585c-51.2 23.631-106.338 31.508-165.415 31.508-90.585 0-177.231-27.569-248.123-82.708-3.938 3.938-11.815 3.938-19.692 3.938z" />
<glyph unicode="&#xe914;" glyph-name="live_tv---material" horiz-adv-x="1138" d="M995.556 732.444c28.444 0 45.511-11.378 68.267-28.444 17.067-17.067 28.444-39.822 28.444-68.267v-568.889c0-28.444-11.378-45.511-28.444-68.267-17.067-17.067-39.822-28.444-68.267-28.444h-853.333c-28.444 0-45.511 11.378-68.267 28.444s-28.444 39.822-28.444 68.267v568.889c0 28.444 11.378 51.2 28.444 68.267s39.822 28.444 68.267 28.444h358.4l-153.6 153.6 34.133 34.133 187.733-187.733 187.733 187.733 34.133-34.133-153.6-153.6h358.4zM995.556 66.844v568.889h-853.333v-568.889h853.333zM426.667 544.711l329.956-193.422-329.956-187.733v381.156z" />
<glyph unicode="&#xe915;" glyph-name="icon01" d="M979.478 483.617c4.452-4.452 8.904-4.452 13.357-13.357 4.452-4.452 4.452-8.904 4.452-13.357s0-13.357-4.452-17.809c-4.452-4.452-8.904-8.904-13.357-13.357l-458.574-249.322c-4.452 0-4.452-4.452-8.904-4.452s-4.452 0-8.904 0-4.452 0-8.904 0-4.452 0-8.904 4.452l-454.122 249.322c-4.452 4.452-8.904 4.452-8.904 13.357-4.452 4.452-4.452 8.904-4.452 17.809s0 8.904 4.452 17.809 8.904 8.904 13.357 8.904l97.948 48.974 66.783-35.617-80.139-40.070 387.339-209.252 391.791 209.252-75.687 40.070 66.783 35.617 89.043-48.974zM979.478 269.913c4.452-4.452 8.904-4.452 13.357-13.357 4.452-4.452 4.452-8.904 4.452-13.357s0-13.357-4.452-17.809c-4.452-4.452-8.904-8.904-13.357-13.357l-458.574-249.322c-4.452 0-4.452 0-8.904-4.452-4.452 0-4.452 0-8.904 0s-4.452 0-8.904 0-4.452 0-8.904 4.452l-454.122 249.322c-4.452 4.452-8.904 4.452-8.904 13.357-4.452 4.452-4.452 8.904-4.452 17.809s0 8.904 4.452 17.809 8.904 8.904 13.357 8.904l89.043 40.070 66.783-35.617-75.687-35.617 387.339-209.252 391.791 209.252-71.235 35.617 66.783 35.617 89.043-40.070zM44.522 652.8c-4.452 4.452-8.904 4.452-13.357 13.357-4.452 4.452-4.452 8.904-4.452 17.809s0 8.904 4.452 17.809c4.452 4.452 8.904 8.904 13.357 8.904l458.574 231.513c4.452 4.452 8.904 4.452 13.357 4.452s8.904 0 13.357-4.452l454.122-231.513c4.452-4.452 8.904-4.452 13.357-8.904s4.452-8.904 4.452-17.809 0-13.357-4.452-17.809-4.452-8.904-8.904-13.357l-458.574-249.322c0 0-4.452 0-8.904-4.452-4.452 0-4.452 0-8.904 0s-4.452 0-8.904 0-4.452 0-8.904 0l-449.67 253.774zM516.452 879.861l-391.791-195.896 387.339-209.252 391.791 209.252-387.339 195.896z" />
<glyph unicode="&#xe916;" glyph-name="icon02" d="M512 693.76h471.040v-655.36h-936.96v844.8h471.040v-189.44zM230.4 693.76v92.16h-92.16v-92.16h92.16zM230.4 504.32v92.16h-92.16v-92.16h92.16zM230.4 320v92.16h-92.16v-92.16h92.16zM230.4 130.56v92.16h-92.16v-92.16h92.16zM419.84 693.76v92.16h-92.16v-92.16h92.16zM419.84 504.32v92.16h-92.16v-92.16h92.16zM419.84 320v92.16h-92.16v-92.16h92.16zM419.84 130.56v92.16h-92.16v-92.16h92.16zM885.76 130.56v471.040h-373.76v-92.16h92.16v-92.16h-92.16v-92.16h92.16v-92.16h-92.16v-92.16h373.76zM793.6 504.32v-92.16h-92.16v92.16h92.16zM793.6 320v-92.16h-92.16v92.16h92.16z" />
<glyph unicode="&#xe917;" glyph-name="icon03" d="M512 945.371c34.133 0 68.267-4.876 97.524-19.505 34.133-14.629 63.39-29.257 87.771-48.762s48.762-43.886 63.39-68.267 24.381-48.762 24.381-78.019v-151.162c0-19.505 0-39.010-4.876-63.39s-9.752-48.762-19.505-73.143c-9.752-24.381-19.505-48.762-34.133-73.143s-34.133-43.886-53.638-58.514l263.314-126.781c39.010-24.381 58.514-43.886 58.514-58.514v-92.648c0-14.629-4.876-29.257-19.505-43.886-9.752-9.752-24.381-19.505-43.886-19.505h-853.333c-19.505 0-29.257 4.876-43.886 19.505-9.752 9.752-19.505 24.381-19.505 43.886v92.648c0 14.629 19.505 34.133 58.514 58.514l268.19 126.781c-19.505 19.505-39.010 39.010-53.638 63.39s-24.381 48.762-34.133 73.143c-9.752 24.381-14.629 48.762-19.505 73.143s-4.876 43.886-4.876 58.514v151.162c0 24.381 9.752 48.762 24.381 78.019 14.629 24.381 39.010 48.762 63.39 68.267s53.638 39.010 87.771 48.762c39.010 14.629 73.143 19.505 107.276 19.505zM512 886.857c-24.381 0-53.638-4.876-78.019-14.629s-48.762-24.381-68.267-39.010c-19.505-14.629-39.010-34.133-48.762-48.762s-19.505-34.133-19.505-48.762v-151.162c0-29.257 9.752-68.267 24.381-112.152 14.629-48.762 39.010-82.895 68.267-107.276 9.752-4.876 14.629-14.629 19.505-24.381s4.876-19.505 4.876-29.257c0-9.752-4.876-19.505-9.752-29.257s-14.629-14.629-24.381-19.505l-268.19-126.781c-4.876 0-9.752-4.876-14.629-9.752s-9.752-14.629-9.752-24.381v-63.39h853.333v58.514c0 14.629-4.876 24.381-9.752 29.257-9.752 4.876-14.629 4.876-14.629 4.876l-263.314 126.781c-9.752 4.876-19.505 9.752-24.381 19.505s-9.752 19.505-9.752 29.257c0 9.752 0 19.505 4.876 29.257s9.752 19.505 19.505 24.381c34.133 24.381 58.514 63.39 68.267 107.276 14.629 48.762 19.505 82.895 19.505 112.152v151.162c0 14.629-4.876 34.133-19.505 53.638s-29.257 34.133-48.762 48.762-43.886 29.257-68.267 39.010-58.514 14.629-82.895 14.629z" />
<glyph unicode="&#xe918;" glyph-name="icon04" d="M515.413 956.587c279.893 0 505.173-228.693 505.173-508.587v-508.587h-505.173c-180.907-3.413-351.573 95.573-440.32 252.587s-92.16 351.573 0 512 256 256 440.32 252.587zM808.96 154.453v293.547c0 119.467-71.68 228.693-180.907 273.067s-238.933 23.893-320.853-61.44-109.227-211.627-64.853-324.267 153.6-184.32 273.067-184.32h293.547zM648.533 488.96c34.133 0 64.853 20.48 78.507 51.2 44.373-102.4 6.827-221.867-85.333-283.307s-215.040-47.787-293.547 30.72-85.333 204.8-23.893 293.547 184.32 122.88 283.307 78.507c-37.547-17.067-58.027-58.027-51.2-98.987 13.653-40.96 47.787-71.68 92.16-71.68z" />
<glyph unicode="&#xe919;" glyph-name="icon05" d="M322.56 821.76c20.48-35.84 46.080-71.68 71.68-112.64 5.12-10.24 10.24-20.48 10.24-35.84s-5.12-25.6-15.36-40.96c-5.12-5.12-10.24-15.36-15.36-30.72s-20.48-35.84-30.72-56.32c15.36-20.48 30.72-40.96 51.2-66.56s46.080-51.2 76.8-81.92c30.72-30.72 56.32-56.32 81.92-76.8s46.080-40.96 66.56-51.2c20.48 15.36 40.96 25.6 56.32 30.72s25.6 15.36 30.72 15.36c10.24 5.12 15.36 10.24 25.6 10.24s15.36 5.12 25.6 5.12c5.12 0 10.24 0 15.36 0s10.24-5.12 15.36-5.12c30.72-20.48 61.44-35.84 97.28-61.44 35.84-20.48 66.56-46.080 107.52-71.68 5.12-5.12 10.24-10.24 15.36-20.48s5.12-15.36 10.24-25.6c0-10.24 0-20.48-5.12-30.72s-5.12-20.48-15.36-30.72c-5.12-5.12-5.12-10.24-10.24-15.36s-10.24-15.36-20.48-20.48c-5.12-10.24-15.36-20.48-25.6-30.72s-25.6-25.6-35.84-35.84c-15.36-15.36-25.6-25.6-40.96-30.72-10.24-5.12-20.48-10.24-30.72-10.24v0c-35.84 0-71.68 10.24-107.52 20.48s-76.8 30.72-117.76 56.32-87.040 56.32-133.12 97.28-92.16 81.92-143.36 133.12c-51.2 51.2-92.16 97.28-133.12 143.36-35.84 46.080-71.68 92.16-97.28 133.12s-46.080 81.92-56.32 122.88c-15.36 35.84-20.48 76.8-20.48 107.52 0 10.24 5.12 20.48 10.24 30.72s15.36 25.6 30.72 40.96c15.36 15.36 25.6 25.6 35.84 35.84s20.48 20.48 30.72 25.6c10.24 5.12 15.36 10.24 20.48 15.36s15.36 10.24 20.48 15.36c5.12 5.12 15.36 10.24 20.48 10.24s15.36 5.12 25.6 5.12c10.24 0 20.48 0 30.72-5.12s15.36-10.24 20.48-15.36c10.24-30.72 30.72-61.44 51.2-92.16zM158.72 837.12c-10.24-10.24-25.6-20.48-35.84-35.84s-20.48-20.48-30.72-30.72-10.24-15.36-15.36-20.48c0-30.72 10.24-61.44 20.48-97.28s30.72-71.68 56.32-107.52 51.2-76.8 87.040-122.88c35.84-40.96 76.8-87.040 122.88-133.12s92.16-87.040 133.12-122.88c40.96-35.84 81.92-66.56 122.88-87.040 35.84-25.6 76.8-40.96 107.52-56.32 35.84-10.24 66.56-20.48 97.28-20.48 5.12 0 10.24 5.12 20.48 15.36 10.24 5.12 20.48 15.36 30.72 30.72s25.6 25.6 35.84 35.84c10.24 15.36 20.48 25.6 30.72 40.96 0 5.12 5.12 5.12 5.12 5.12s0 5.12 0 5.12c-40.96 25.6-71.68 51.2-107.52 71.68-30.72 20.48-61.44 40.96-87.040 56.32-5.12 0-5.12 0-10.24 0s-5.12 0-10.24-5.12-15.36-10.24-30.72-15.36c-15.36-10.24-35.84-20.48-56.32-30.72l-30.72-20.48-30.72 20.48c-20.48 15.36-46.080 35.84-71.68 56.32s-56.32 51.2-87.040 81.92c-30.72 30.72-56.32 56.32-76.8 87.040-20.48 25.6-40.96 51.2-56.32 71.68l-25.6 30.72 20.48 35.84c10.24 25.6 20.48 40.96 30.72 56.32s15.36 25.6 15.36 30.72c0 5.12 5.12 5.12 5.12 10.24s0 5.12 0 10.24c-25.6 35.84-46.080 71.68-66.56 102.4s-40.96 61.44-61.44 92.16v0c-5.12 0-5.12 0-5.12 0s-5.12 0-5.12-5.12c-15.36-15.36-25.6-25.6-40.96-35.84z" />
<glyph unicode="&#xe91a;" glyph-name="icon06" d="M885.76 806.4c25.6 0 46.080-10.24 66.56-25.6 20.48-20.48 25.6-40.96 25.6-66.56v-563.2c0-25.6-10.24-46.080-25.6-66.56-20.48-20.48-40.96-30.72-66.56-30.72h-752.64c-25.6 0-46.080 10.24-66.56 30.72s-25.6 40.96-25.6 66.56v563.2c0 25.6 10.24 46.080 25.6 66.56 20.48 20.48 40.96 25.6 66.56 25.6h752.64zM885.76 151.040v563.2h-752.64v-563.2h752.64zM322.56 524.8v-92.16h-92.16v92.16h92.16zM512 524.8v-92.16h-92.16v92.16h92.16zM701.44 524.8v-92.16h-92.16v92.16h92.16zM701.44 340.48v-92.16h-92.16v92.16h92.16z" />
<glyph unicode="&#xe91b;" glyph-name="icon07" d="M999.619 477.257c0-63.39-14.629-121.905-39.010-180.419-24.381-53.638-58.514-102.4-102.4-146.286s-97.524-73.143-156.038-97.524c-58.514-24.381-121.905-34.133-190.171-34.133-53.638 0-102.4 9.752-151.162 24.381l-141.41-78.019c-4.876-4.876-9.752-4.876-19.505-4.876s-9.752 0-14.629 4.876c-9.752 4.876-19.505 14.629-19.505 24.381l-19.505 185.295c-39.010 43.886-68.267 87.771-87.771 141.41s-29.257 107.276-29.257 160.914c0 63.39 14.629 121.905 39.010 180.419 24.381 53.638 58.514 102.4 102.4 146.286s97.524 73.143 156.038 97.524c58.514 24.381 121.905 34.133 190.171 34.133s126.781-9.752 190.171-34.133c58.514-24.381 112.152-53.638 156.038-97.524s78.019-92.648 102.4-146.286c19.505-58.514 34.133-117.029 34.133-180.419zM931.352 477.257c0 53.638-9.752 102.4-34.133 151.162-19.505 48.762-48.762 87.771-87.771 121.905s-82.895 63.39-131.657 82.895c-53.638 19.505-107.276 29.257-165.79 29.257s-112.152-9.752-165.79-29.257c-48.762-19.505-92.648-48.762-131.657-82.895s-68.267-78.019-87.771-121.905c-19.505-48.762-34.133-97.524-34.133-151.162 0-48.762 9.752-97.524 29.257-141.41s43.886-87.771 82.895-121.905c4.876-4.876 9.752-14.629 9.752-19.505l19.505-146.286 107.276 63.39c9.752 4.876 19.505 4.876 29.257 4.876 48.762-14.629 92.648-24.381 146.286-24.381 58.514 0 112.152 9.752 165.79 29.257 48.762 19.505 92.648 48.762 131.657 82.895s68.267 78.019 87.771 121.905c19.505 48.762 29.257 102.4 29.257 151.162zM355.962 477.257c0-14.629-4.876-29.257-14.629-39.010s-24.381-14.629-39.010-14.629c-14.629 0-29.257 4.876-39.010 14.629s-14.629 24.381-14.629 39.010 4.876 29.257 14.629 39.010c9.752 9.752 24.381 14.629 39.010 14.629s29.257-4.876 39.010-14.629c9.752-9.752 14.629-24.381 14.629-39.010zM565.638 477.257c0-14.629-4.876-29.257-14.629-39.010s-24.381-14.629-39.010-14.629c-14.629 0-29.257 4.876-39.010 14.629s-14.629 24.381-14.629 39.010 4.876 29.257 14.629 39.010c9.752 9.752 24.381 14.629 39.010 14.629s29.257-4.876 39.010-14.629c9.752-9.752 14.629-24.381 14.629-39.010zM775.314 477.257c0-14.629-4.876-29.257-14.629-39.010s-24.381-14.629-39.010-14.629c-14.629 0-29.257 4.876-39.010 14.629s-14.629 24.381-14.629 39.010 4.876 29.257 14.629 39.010c9.752 9.752 24.381 14.629 39.010 14.629s29.257-4.876 39.010-14.629c9.752-9.752 14.629-24.381 14.629-39.010z" />
<glyph unicode="&#xe91c;" glyph-name="icon08" d="M143.36 811.52c97.28 97.28 209.92 143.36 348.16 143.36s250.88-46.080 348.16-143.36c97.28-97.28 143.36-209.92 143.36-348.16s-46.080-250.88-143.36-348.16c-97.28-97.28-209.92-143.36-348.16-143.36s-250.88 46.080-348.16 143.36c-97.28 97.28-143.36 209.92-143.36 348.16s46.080 250.88 143.36 348.16zM220.16 140.8v0c15.36-15.36 30.72-25.6 56.32-40.96-35.84 35.84-51.2 92.16-46.080 174.080l5.12 51.2c0 5.12 0 5.12-5.12 10.24s-5.12 10.24-5.12 10.24c0 10.24-5.12 15.36-10.24 20.48s-5.12 5.12-10.24 10.24c-15.36 15.36-20.48 25.6-25.6 35.84-10.24 25.6-5.12 56.32 20.48 92.16 5.12 10.24 5.12 25.6-5.12 40.96s-15.36 25.6-15.36 30.72c0 5.12-5.12 10.24-10.24 15.36s-5.12 10.24-5.12 15.36c0 5.12 0 10.24-10.24 15.36-5.12 5.12-10.24 5.12-10.24 5.12-10.24 5.12-15.36 15.36-15.36 30.72s0 25.6 0 25.6c-46.080-76.8-66.56-163.84-61.44-250.88 5.12-92.16 40.96-168.96 97.28-240.64v0 0 0c10.24-10.24 15.36-20.48 20.48-25.6s5.12-5.12 10.24-10.24c15.36-10.24 20.48-15.36 25.6-15.36v0zM312.32 79.36l15.36-10.24c10.24-5.12 15.36-5.12 20.48-5.12 25.6-10.24 61.44-15.36 92.16-20.48 66.56-5.12 128 0 184.32 15.36 40.96 15.36 71.68 25.6 92.16 46.080 5.12 5.12 10.24 10.24 15.36 25.6s5.12 25.6 10.24 25.6 5.12 25.6 10.24 51.2c0 25.6 5.12 40.96 20.48 56.32 5.12 10.24 10.24 15.36 15.36 25.6 0 5.12 0 15.36 0 25.6s-5.12 20.48-5.12 25.6c0 5.12 0 15.36 5.12 30.72s5.12 25.6 0 35.84c0 5.12-5.12 5.12-10.24 0-5.12 0-10.24 0-10.24 0-5.12 5.12-10.24 5.12-15.36 10.24-10.24 0-15.36 0-25.6 0s-15.36 0-20.48 0c-15.36 5.12-40.96 20.48-71.68 51.2-5.12 5.12-5.12 25.6 0 56.32 0 5.12 5.12 15.36 5.12 30.72s5.12 30.72 10.24 35.84c5.12 10.24 15.36 15.36 25.6 15.36 5.12 0 10.24 5.12 10.24 10.24 5.12 5.12 5.12 10.24 10.24 10.24s10.24 5.12 15.36 5.12c5.12 0 10.24 5.12 15.36 5.12s15.36 0 30.72 0c10.24 0 20.48-5.12 25.6-5.12 10.24 0 25.6-10.24 46.080-25.6 5.12-5.12 10.24-5.12 15.36-10.24 5.12 0 10.24 0 15.36 0s10.24 0 15.36 0c5.12 0 5.12 5.12-5.12 15.36-5.12 5.12-10.24 5.12-15.36 5.12-15.36 5.12-25.6 15.36-46.080 30.72-15.36 20.48-25.6 30.72-35.84 35.84s-20.48 5.12-25.6 0v-25.6c0 0-10.24-5.12-30.72-10.24-15.36-5.12-25.6 5.12-35.84 20.48-5.12 15.36-5.12 20.48 5.12 25.6h5.12c5.12 0 5.12 0 10.24 5.12 5.12 0 5.12 0 10.24 5.12 5.12 0 10.24 5.12 10.24 5.12 5.12 0 5.12 5.12 10.24 5.12s5.12 5.12 5.12 10.24c0 5.12 0 5.12 0 10.24s0 10.24 0 15.36-5.12 15.36-10.24 15.36c-5.12 0-10.24 5.12-15.36 10.24s-10.24 5.12-15.36 10.24c-5.12 0-10.24 10.24-10.24 30.72 0 10.24 5.12 15.36 10.24 15.36s5.12 0 10.24 0c-35.84 25.6-76.8 40.96-122.88 51.2-5.12-15.36-10.24-25.6-15.36-25.6-10.24-5.12-15.36-5.12-20.48-5.12-5.12-5.12-5.12-10.24-10.24-15.36s-10.24-10.24-10.24-15.36c-5.12-5.12-5.12-5.12-10.24-10.24-5.12 0-5.12 0-10.24 0-5.12 5.12-10.24 10.24-10.24 20.48-5.12 10.24-5.12 20.48 0 30.72 5.12 15.36 5.12 20.48 5.12 30.72h-20.48c10.24-20.48 5.12-35.84-15.36-40.96-5.12 0-10.24 0-20.48 5.12-5.12 5.12-15.36 5.12-20.48 5.12s-5.12 0-10.24 5.12c-5.12 0-10.24 0-10.24 0-20.48-10.24-30.72-15.36-30.72-25.6-5.12-15.36 0-20.48 5.12-25.6 5.12 0 15.36 0 25.6 10.24 20.48 20.48 40.96 25.6 56.32 15.36 5.12-5.12 10.24-15.36 10.24-30.72 0-5.12 0-10.24 0-15.36s-5.12-10.24-5.12-15.36c-5.12-5.12-5.12-5.12-15.36-5.12 0 0-5.12 0-10.24 5.12-5.12 0-5.12 5.12-10.24 5.12 0 0-5.12 0-10.24 0-5.12-5.12-25.6-10.24-61.44-20.48-10.24 0-20.48-5.12-30.72-10.24s-20.48-10.24-25.6-10.24-25.6-15.36-25.6-25.6c0-20.48 0-30.72-5.12-30.72s-5.12 0-10.24 10.24-10.24 15.36-15.36 25.6c-5.12 10.24-15.36 10.24-25.6 10.24-15.36 0-30.72-10.24-40.96-20.48-15.36-10.24-15.36-25.6-15.36-40.96 0-5.12 5.12-5.12 15.36-10.24 10.24 0 15.36-5.12 15.36-5.12s0-10.24-10.24-15.36c0-5.12 0-5.12 0-10.24s0-10.24 5.12-20.48c0-10.24 0-15.36 0-15.36 0-10.24 5.12-20.48 15.36-25.6s20.48-5.12 30.72 0c5.12 5.12 15.36 10.24 30.72 5.12 56.32-30.72 92.16-51.2 97.28-61.44 5.12-5.12 10.24-15.36 15.36-30.72 10.24-15.36 15.36-25.6 20.48-30.72 0 0 10.24-5.12 25.6-10.24s25.6-10.24 30.72-20.48c5.12-10.24 5.12-20.48 0-25.6-5.12-10.24-10.24-15.36-20.48-25.6-5.12 0-10.24-10.24-15.36-30.72-10.24-20.48-15.36-30.72-15.36-30.72-5.12-5.12-15.36-10.24-35.84-15.36 0 0-5.12 0-5.12-5.12-5.12-5.12-5.12-5.12-10.24-10.24 0-5.12-5.12-5.12-5.12-10.24-5.12-5.12-10.24-10.24-15.36-20.48s-15.36-15.36-20.48-20.48c-35.84-25.6-46.080-56.32-40.96-97.28 20.48-30.72 25.6-46.080 40.96-51.2zM716.8 744.96c10.24-20.48 10.24-30.72 5.12-30.72-5.12-5.12-10.24-5.12-15.36 0-5.12 0-10.24 5.12-15.36 15.36 0 5.12 0 10.24 0 15.36v5.12h-5.12c-10.24-5.12-15.36 0-15.36 10.24 0 5.12 5.12 5.12 10.24 10.24 0 0 0 5.12 0 5.12 0 10.24 0 10.24 5.12 10.24 10.24-10.24 20.48-20.48 30.72-40.96z" />
<glyph unicode="&#xe91d;" glyph-name="icon09" d="M984.178 880.356c17.067-17.067 22.756-34.133 22.756-56.889v-694.044c0-22.756-5.689-39.822-22.756-56.889s-34.133-22.756-56.889-22.756h-836.267c-22.756 0-39.822 5.689-56.889 22.756s-22.756 34.133-22.756 56.889v694.044c0 22.756 5.689 39.822 22.756 56.889s34.133 22.756 56.889 22.756h836.267c22.756 0 39.822-5.689 56.889-22.756zM927.289 129.422v659.911l-329.956-278.756c-22.756-22.756-51.2-34.133-85.333-34.133s-62.578 11.378-85.333 34.133l-335.644 278.756v-665.6h836.267zM176.356 823.467l307.2-250.311c5.689-5.689 17.067-11.378 28.444-11.378v0c11.378 0 22.756 5.689 28.444 11.378v0 0l295.822 250.311h-659.911z" />
<glyph unicode="&#xe91e;" glyph-name="icon10" d="M794.819 916.114c14.629-14.629 19.505-29.257 19.505-48.762v-838.705c0-19.505-4.876-34.133-19.505-48.762s-29.257-19.505-48.762-19.505h-472.99c-19.505 0-34.133 4.876-48.762 19.505s-19.505 29.257-19.505 48.762v838.705c0 19.505 4.876 34.133 19.505 48.762s29.257 19.505 48.762 19.505h472.99c19.505 0 39.010-4.876 48.762-19.505zM746.057 813.714h-472.99v-672.914h472.99v672.914zM565.638 28.648c4.876 4.876 9.752 14.629 9.752 19.505s-4.876 14.629-9.752 19.505c-4.876 4.876-14.629 9.752-24.381 9.752h-58.514c-9.752 0-19.505-4.876-24.381-9.752s-9.752-14.629-9.752-19.505 4.876-14.629 9.752-19.505c4.876-4.876 14.629-9.752 24.381-9.752h58.514c9.752 0 14.629 4.876 24.381 9.752z" />
<glyph unicode="&#xe91f;" glyph-name="eye" d="M4.523 445.739c-5.803-11.691-6.229-25.728 0-38.144 0 0 16.896-33.664 47.787-78.635 19.243-27.989 44.288-61.099 74.965-94.635 38.144-41.771 85.504-84.779 141.611-119.467 68.053-42.069 149.589-72.192 243.115-72.192s175.061 30.123 243.115 72.192c56.107 34.688 103.467 77.696 141.611 119.467 30.635 33.536 55.723 66.645 74.965 94.635 30.891 44.971 47.787 78.635 47.787 78.635 5.803 11.691 6.229 25.728 0 38.144 0 0-16.896 33.664-47.787 78.635-19.243 27.989-44.288 61.099-74.965 94.635-38.144 41.771-85.504 84.779-141.611 119.467-68.053 42.069-149.589 72.192-243.115 72.192s-175.061-30.123-243.115-72.192c-56.107-34.688-103.467-77.696-141.611-119.467-30.677-33.536-55.723-66.603-74.965-94.635-30.891-44.971-47.787-78.635-47.787-78.635zM91.307 426.667c6.955 11.989 17.365 29.056 31.317 49.408 17.493 25.429 40.107 55.296 67.627 85.376 34.347 37.589 75.733 74.923 123.477 104.448 57.6 35.584 123.776 59.435 198.272 59.435s140.672-23.851 198.229-59.435c47.744-29.525 89.131-66.859 123.477-104.448 27.477-30.080 50.133-59.947 67.627-85.376 13.995-20.352 24.405-37.376 31.317-49.408-6.955-11.989-17.365-29.056-31.317-49.408-17.493-25.429-40.107-55.296-67.627-85.376-34.347-37.589-75.733-74.923-123.477-104.448-57.557-35.584-123.733-59.435-198.229-59.435s-140.672 23.851-198.229 59.435c-47.744 29.525-89.131 66.859-123.477 104.448-27.477 30.080-50.133 59.947-67.627 85.376-13.995 20.352-24.405 37.419-31.36 49.408zM682.667 426.667c0 47.104-19.157 89.856-50.005 120.661s-73.557 50.005-120.661 50.005-89.856-19.157-120.661-50.005-50.005-73.557-50.005-120.661 19.157-89.856 50.005-120.661 73.557-50.005 120.661-50.005 89.856 19.157 120.661 50.005 50.005 73.557 50.005 120.661zM597.333 426.667c0-23.595-9.515-44.843-25.003-60.331s-36.736-25.003-60.331-25.003-44.843 9.515-60.331 25.003-25.003 36.736-25.003 60.331 9.515 44.843 25.003 60.331 36.736 25.003 60.331 25.003 44.843-9.515 60.331-25.003 25.003-36.736 25.003-60.331z" />
<glyph unicode="&#xe920;" glyph-name="eye-off" d="M432.128 716.203c27.776 6.485 55.296 9.429 79.36 9.131 75.008 0 141.184-23.851 198.741-59.435 47.744-29.525 89.131-66.859 123.477-104.448 27.477-30.080 50.133-59.947 67.627-85.376 13.952-20.267 24.32-37.291 31.275-49.28-23.296-40.661-49.493-77.696-75.861-108.459-15.317-17.877-13.269-44.843 4.608-60.16s44.843-13.269 60.16 4.608c34.901 40.704 68.736 90.112 97.408 143.787 6.315 11.904 6.955 26.368 0.555 39.211 0 0-16.896 33.664-47.787 78.635-19.243 27.989-44.288 61.099-74.965 94.635-38.144 41.771-85.504 84.779-141.611 119.467-68.053 42.027-149.589 72.149-242.603 72.149-31.317 0.384-65.707-3.371-99.84-11.349-22.955-5.376-37.205-28.331-31.829-51.285s28.331-37.205 51.285-31.829zM427.819 450.475l107.989-107.989c-7.765-2.603-15.872-4.011-24.021-4.309-21.888-0.768-43.947 6.784-61.184 22.869s-26.325 37.547-27.093 59.435c-0.341 10.155 1.067 20.309 4.309 30.037zM255.275 623.062l108.928-108.928c-18.517-29.483-27.136-63.317-25.941-96.683 1.536-43.605 19.755-86.741 54.229-118.827s78.763-47.232 122.368-45.696c29.525 1.024 58.837 9.728 84.651 25.941l99.072-99.072c-58.795-34.091-123.52-51.029-187.051-51.797-73.984 0-140.16 23.851-197.717 59.435-47.744 29.525-89.131 66.859-123.477 104.448-27.477 30.080-50.133 59.947-67.627 85.376-13.909 20.267-24.32 37.248-31.232 49.237 44.8 77.739 101.376 144.171 163.883 196.565zM12.501 865.835l182.229-182.229c-73.856-63.104-139.477-143.275-189.653-236.757-6.315-11.904-6.997-26.411-0.555-39.253 0 0 16.896-33.664 47.787-78.635 19.243-27.989 44.288-61.099 74.965-94.635 38.144-41.771 85.504-84.779 141.611-119.467 68.053-42.069 149.589-72.192 243.627-72.192 85.035 1.024 171.477 25.643 248.107 75.051l190.549-190.549c16.683-16.683 43.691-16.683 60.331 0s16.683 43.691 0 60.331l-378.709 378.709c-0.085 0.085-0.213 0.213-0.299 0.299l-179.584 179.627c-0.341 0.299-0.683 0.683-1.024 1.024l-379.051 379.008c-16.683 16.683-43.691 16.683-60.331 0s-16.683-43.691 0-60.331z" />
<glyph unicode="&#xe9e1;" glyph-name="smile" d="M512-64c282.77 0 512 229.23 512 512s-229.23 512-512 512-512-229.23-512-512 229.23-512 512-512zM512 864c229.75 0 416-186.25 416-416s-186.25-416-416-416-416 186.25-416 416 186.25 416 416 416zM256 640c0 35.346 28.654 64 64 64s64-28.654 64-64c0-35.346-28.654-64-64-64s-64 28.654-64 64zM640 640c0 35.346 28.654 64 64 64s64-28.654 64-64c0-35.346-28.654-64-64-64s-64 28.654-64 64zM704.098 332.74l82.328-49.396c-55.962-93.070-157.916-155.344-274.426-155.344s-218.464 62.274-274.426 155.344l82.328 49.396c39.174-65.148 110.542-108.74 192.098-108.74s152.924 43.592 192.098 108.74z" />
<glyph unicode="&#xe9e5;" glyph-name="sad" d="M512-64c282.77 0 512 229.23 512 512s-229.23 512-512 512-512-229.23-512-512 229.23-512 512-512zM512 864c229.75 0 416-186.25 416-416s-186.25-416-416-416-416 186.25-416 416 186.25 416 416 416zM256 640c0 35.346 28.654 64 64 64s64-28.654 64-64c0-35.346-28.654-64-64-64s-64 28.654-64 64zM640 640c0 35.346 28.654 64 64 64s64-28.654 64-64c0-35.346-28.654-64-64-64s-64 28.654-64 64zM319.902 179.26l-82.328 49.396c55.962 93.070 157.916 155.344 274.426 155.344 116.508 0 218.462-62.274 274.426-155.344l-82.328-49.396c-39.174 65.148-110.542 108.74-192.098 108.74-81.558 0-152.924-43.592-192.098-108.74z" />
</font>
</defs>
</svg>
