<?xml version="1.0" encoding="UTF-8"?>
<svg width="240px" height="54px" viewBox="0 0 240 54" version="1.1" xmlns="http://www.w3.org/2000/svg" xmlns:xlink="http://www.w3.org/1999/xlink">
    <!-- Generator: Sketch 55.2 (78181) - https://sketchapp.com -->
    <title>all_logo</title>
    <desc>Created with Sketch.</desc>
    <g id="web-登入...等" stroke="none" stroke-width="1" fill="none" fill-rule="evenodd">
        <g id="040_login" transform="translate(-223.000000, -237.000000)" fill="#00B2D2">
            <g id="群組" transform="translate(223.000000, 237.000000)">
                <g id="all_logo">
                    <g id="logo" transform="translate(48.180113, 0.000000)">
                        <path d="M27.5031895,23.4765 C28.4007505,24.8625 28.849531,26.712 28.849531,29.025 C28.8921808,31.0147694 28.469727,32.9870427 27.6157598,34.785 C26.8290792,36.3867471 25.686244,37.7874615 24.2746717,38.88 C22.820507,39.9905441 21.164312,40.8081901 19.3981238,41.2875 C17.4922666,41.8165138 15.5224458,42.080002 13.5444653,42.0705 C11.1022494,42.0936092 8.67428588,41.6963053 6.36697936,40.896 C4.07269756,40.0580332 1.97360697,38.7610854 0.198123827,37.0845 L6.42101313,30.2445 C7.30829494,31.4337356 8.4741119,32.3871302 9.81613508,33.021 C11.7986824,33.9966572 14.0586358,34.2543217 16.2101313,33.75 C16.8999047,33.6035944 17.563396,33.3532336 18.1778612,33.0075 C18.7365311,32.6885871 19.2153794,32.2469678 19.5782364,31.716 C19.9407797,31.1684674 20.1262571,30.5228438 20.1095685,29.8665 C20.1566088,28.7575514 19.6506513,27.6973903 18.7587242,27.036 C17.7057718,26.2756156 16.5425918,25.680731 15.3095685,25.272 C13.9136961,24.786 12.412758,24.3 10.8067542,23.814 C9.23086926,23.347334 7.71853409,22.6883679 6.30393996,21.852 C4.92085615,21.0483886 3.73356258,19.9479082 2.82776735,18.63 C1.9272045,17.283 1.47692308,15.507 1.47692308,13.302 C1.43554317,11.3598727 1.86828591,9.43691561 2.73771107,7.6995 C3.55064396,6.11965662 4.70034747,4.73718811 6.10581614,3.6495 C7.55487686,2.5396086 9.20002549,1.71220539 10.9553471,1.2105 C12.7944586,0.667947746 14.7023221,0.393617494 16.6198874,0.395942637 C18.8239932,0.391003074 21.0166703,0.712495818 23.126454,1.35 C25.2243405,1.98464533 27.1577766,3.07056343 28.7909944,4.5315 L22.7842402,11.0925 C22.0307033,10.1689847 21.0295442,9.47906935 19.8979362,9.1035 C18.7929754,8.69535297 17.6266664,8.47775774 16.4487805,8.46 C15.7881199,8.46323702 15.1297958,8.53868573 14.4855535,8.685 C13.8198943,8.83018942 13.1774464,9.06641403 12.5763602,9.387 C11.9988115,9.68634759 11.5004085,10.1181297 11.1219512,10.647 C10.7339796,11.2043038 10.5365577,11.8719619 10.5590994,12.5505 C10.5031707,13.6388177 11.0140797,14.6787189 11.9099437,15.3 C12.9555499,16.0032126 14.0996937,16.5476303 15.3050657,16.9155 C16.6649156,17.3655 18.1313321,17.8155 19.7043152,18.2655 C21.2501568,18.702155 22.731048,19.3422628 24.1080675,20.169 C25.4774894,20.9981488 26.6388497,22.1295364 27.5031895,23.4765 Z M191.166979,20.367 C191.494233,21.885497 191.654285,23.435215 191.644719,24.9885 L191.644719,41.0625 L183.233021,41.0625 L183.233021,25.2 C183.260504,24.0618261 182.978853,22.9374814 182.418011,21.9465 C181.877674,21.0465 180.914071,20.5965 179.531707,20.5965 C178.694764,20.5622501 177.86079,20.7160236 177.091182,21.0465 C176.462851,21.344 175.921678,21.7980539 175.5197,22.365 C175.114889,22.9585279 174.828948,23.6247986 174.677674,24.327 C174.507595,25.0998981 174.423035,25.8891367 174.425516,26.6805 L174.425516,41.0805 L166.014259,41.0805 L166.014259,26.6805 C166.014259,26.1855 165.996248,25.587 165.955722,24.8805 C165.923695,24.1915997 165.791737,23.5109982 165.563977,22.86 C165.344091,22.2339821 164.967387,21.6747017 164.469794,21.2355 C163.839644,20.7460268 163.050414,20.5071614 162.254409,20.565 C161.340152,20.5249941 160.431518,20.7267865 159.620263,21.15 C158.976818,21.5235174 158.448701,22.0668737 158.093809,22.7205 C157.729898,23.4105777 157.49347,24.1605753 157.395872,24.9345 C157.28047,25.7891355 157.223303,26.6506192 157.224765,27.513 L157.224765,41.067 L149.484428,41.067 L149.484428,37.647 L149.37636,37.647 C148.495539,39.0640681 147.189015,40.1665954 145.643527,40.797 C142.914293,41.9029847 139.890592,42.0520924 137.065666,41.22 C135.934811,40.8881806 134.877388,40.3445288 133.949719,39.618 C133.051965,38.9104685 132.324203,38.0109457 131.819887,36.9855 C131.273823,35.8510156 131.003819,34.6036028 131.031895,33.345 C130.990319,31.9765302 131.284017,30.6186398 131.88743,29.3895 C132.453601,28.3187041 133.261407,27.3943131 134.246904,26.6895 C135.280847,25.9602889 136.425773,25.4026191 137.637523,25.038 C138.929209,24.6403495 140.251516,24.3498644 141.590994,24.1695 C142.949503,23.9809193 144.317483,23.8682441 145.688555,23.832 C147.052908,23.7735 148.313696,23.7735 149.470919,23.7735 C149.526417,22.4033557 148.934425,21.086789 147.87242,20.2185 C146.810327,19.3404785 145.468162,18.8726112 144.090056,18.9 C142.781333,18.8832468 141.487574,19.1794838 140.316698,19.764 C139.156746,20.3581517 138.119448,21.1657918 137.259287,22.1445 L132.756473,17.55 C134.332279,16.0807867 136.19919,14.9585807 138.236398,14.256 C140.339453,13.5234328 142.551861,13.1536604 144.778987,13.1625 C147.246529,13.1625 149.4394,13.3155 151.042402,13.9095 C154.167355,15.0705 156.081051,16.8345 156.697936,18.0405 L156.986116,17.55 C157.284546,16.9714783 157.663553,16.4381698 158.11182,15.966 C158.622667,15.4203758 159.207759,14.9492622 159.849906,14.5665 C160.568691,14.1348915 161.338636,13.7947554 162.141839,13.554 C163.051337,13.2877669 163.994902,13.1558717 164.942589,13.1625 C166.705933,13.1276364 168.450132,13.5328668 170.017261,14.3415 C171.523152,15.1542288 172.70301,16.4604784 173.358349,18.0405 C174.149812,16.4750391 175.37735,15.1716934 176.893058,14.2875 C178.474927,13.4936966 180.23003,13.1070111 181.99925,13.1625 C183.592833,13.1138225 185.176369,13.4309475 186.628143,14.0895 C187.821315,14.656733 188.845692,15.5253581 189.6,16.6095 C190.36049,17.7489786 190.892641,19.0250363 191.166979,20.367 Z M149.466417,30.933 L149.493433,29.1375 L147.422139,29.1375 C146.782739,29.1375 145.990244,29.169 145.035647,29.223 C144.104608,29.2745255 143.182784,29.4346112 142.288931,29.7 C141.464533,29.9298442 140.697548,30.3299601 140.037523,30.8745 C139.399597,31.4179075 139.047507,32.224553 139.082927,33.0615 C139.035638,33.9996988 139.540745,34.8791257 140.375235,35.3115 C141.195031,35.7899783 142.127558,36.0416032 143.076923,36.0405179 C143.882648,36.0421494 144.684567,35.9300418 145.458912,35.7075 C146.18781,35.4992072 146.879244,35.1772459 147.507692,34.7535 C148.098484,34.3472097 148.587055,33.8096554 148.935084,33.183 C149.305234,32.4920386 149.488388,31.7164441 149.466417,30.933 Z M128.582364,31.419 C128.582364,31.419 127.95197,35.2485 129.482927,38.133 C129.837931,38.8189889 130.257058,39.469887 130.734709,40.077 C130.500563,40.185 130.284428,40.2975 130.050281,40.401 C127.540285,41.5063652 124.827692,42.0779678 122.084803,42.0795 C119.161529,42.1117747 116.256188,41.6194708 113.506942,40.626 C110.981654,39.7125729 108.670633,38.2912952 106.716698,36.45 C104.803984,34.5885559 103.305031,32.3453661 102.317448,29.8665 C101.219724,27.1231648 100.676442,24.1897473 100.718949,21.2355 C100.718949,21.015 100.718949,20.7855 100.718949,20.565 L94.8157598,20.565 L94.8157598,29.646 C94.8114179,30.3286604 94.8490121,31.0109435 94.9283302,31.689 C94.9844937,32.2505398 95.1561905,32.7944172 95.4326454,33.2865 C95.7141439,33.7512963 96.1369863,34.1139566 96.6393996,34.3215 C97.3262748,34.5932233 98.0626887,34.7174155 98.8007505,34.686 C99.3914333,34.675911 99.9809263,34.6293221 100.565854,34.5465 C100.949661,34.5025365 101.324621,34.40089 101.678049,34.245 C102.606681,35.7365884 103.720191,37.1049268 104.99212,38.3175 C105.42439,38.727 106.374484,39.4335 106.824765,39.807 C103.726829,41.2335 100.205629,41.481 99.3050657,41.58 C98.3168652,41.6918683 97.3232235,41.7489557 96.3287054,41.751 C95.0063462,41.7630205 93.6875579,41.6118779 92.4022514,41.301 C91.2687247,41.0349974 90.19805,40.5504377 89.2502814,39.8745 C88.3472634,39.2127038 87.624358,38.3355493 87.1474672,37.323 C86.6116936,36.1255233 86.3531182,34.8226873 86.3909944,33.5115 L86.3909944,31.833 C86.235667,32.348424 86.0476697,32.8534449 85.8281426,33.345 C85.0759726,35.0514179 83.9782359,36.5836116 82.6041276,37.845 C81.2038958,39.1176235 79.5646751,40.0996234 77.7816135,40.734 C73.9517775,42.0780032 69.7780537,42.0780032 65.9482176,40.734 C64.165156,40.0996234 62.5259353,39.1176235 61.1257036,37.845 C59.7506562,36.583439 58.6514738,35.0513673 57.8971857,33.345 C57.6297453,32.7369846 57.4084823,32.1097124 57.235272,31.4685 C57.1317073,31.8825 57.0146341,32.292 56.8795497,32.697 C56.3341143,34.3713684 55.4989374,35.9371078 54.4120075,37.323 C53.3567997,38.6624393 52.027283,39.7609831 50.5125704,40.545 C48.8992524,41.3669016 47.1089086,41.7809882 45.2983114,41.751 C43.6275573,41.7640538 41.9671093,41.4885004 40.3902439,40.9365 C38.8963704,40.4090474 37.5968131,39.4428313 36.6619137,38.1645 L36.5493433,38.1645 L36.5493433,53.838 L28.1380863,53.838 L28.1380863,38.988 C28.9039532,38.0823336 29.5585212,37.0882538 30.0878049,36.027 C31.1337082,33.8432569 31.6548642,31.4455884 31.6097561,29.025 C31.6097561,26.181 30.9973734,23.8095 29.8086304,21.9825 C29.3187051,21.2263147 28.7545645,20.5208259 28.1245779,19.8765 L28.1245779,13.824 L35.8649156,13.824 L35.8649156,17.424 L35.9729831,17.424 C36.3591922,16.8839409 36.8014223,16.3861774 37.2923077,15.939 C37.8717233,15.4071255 38.5126658,14.9463584 39.2015009,14.5665 C39.9568917,14.1446582 40.7554774,13.8052073 41.5834897,13.554 C42.4751121,13.2905786 43.4004464,13.1586872 44.3302064,13.1625 C46.2141109,13.1364576 48.0839567,13.4899911 49.8281426,14.202 C51.430882,14.8613661 52.8740234,15.8555907 54.060788,17.118 C55.260559,18.4039227 56.1872595,19.919394 56.7849906,21.573 C56.9838262,22.1174155 57.1492367,22.6734487 57.2803002,23.238 C57.4435766,22.6700212 57.6451638,22.1137478 57.8836773,21.573 C58.6384178,19.8668911 59.7375378,18.3349063 61.1121951,17.073 C62.5115222,15.8002424 64.1510861,14.8195668 65.9347092,14.1885 C69.7634964,12.8383622 73.9393179,12.8383622 77.7681051,14.1885 C79.5517282,14.8195668 81.191292,15.8002424 82.5906191,17.073 C83.9639451,18.3350804 85.0615567,19.8670993 85.8146341,21.573 C86.0348822,22.0627218 86.2228994,22.5662929 86.3774859,23.0805 L86.3774859,5.7645 L94.788743,5.7645 L94.788743,13.833 L101.826642,13.833 C101.961726,13.4145 102.110319,13.0005 102.276923,12.6 C103.276421,10.1175242 104.789373,7.87405017 106.716698,6.0165 C108.67149,4.16974467 110.983872,2.74244679 113.511445,1.8225 C116.260981,0.829663212 119.165936,0.335900811 122.089306,0.3645 C123.265203,0.369017434 124.438613,0.472887386 125.596998,0.675 C126.82713,0.882715208 128.033734,1.21130926 129.19925,1.656 C130.397969,2.11712486 131.53645,2.72151775 132.589869,3.456 C133.69327,4.2231419 134.676597,5.14974256 135.507692,6.2055 L128.780488,11.7 C127.931883,10.6641428 126.85243,9.84118905 125.628518,9.297 C124.248304,8.71303324 122.75911,8.43072347 121.260788,8.469 C118.132587,8.43353275 115.14039,9.74507969 113.047655,12.069 C111.992011,13.2527816 111.172777,14.6275009 110.634146,16.119 C109.47553,19.4301927 109.47553,23.0363073 110.634146,26.3475 C111.170745,27.8340516 111.980081,29.2075383 113.020638,30.3975 C114.007313,31.5239097 115.219051,32.4313792 116.577861,33.0615 C117.95707,33.701203 119.461148,34.0270366 120.981614,34.0155 C122.778236,34.0155 124.277674,33.4485 125.750094,32.895 C125.750094,32.895 127.492683,31.977 128.582364,31.419 Z M47.5587242,32.445 C48.7384615,31.179 49.3268293,29.517 49.3238388,27.459 C49.3208255,25.401 48.7324578,23.7375 47.5587242,22.4685 C46.3819887,21.1995 44.7309568,20.565 42.6056285,20.565 C40.4803002,20.565 38.8292683,21.1995 37.6525328,22.4685 C36.4787992,23.7405 35.8904315,25.404 35.8874182,27.459 C35.8844278,29.514 36.4727955,31.176 37.6525328,32.445 C38.8322702,33.72 40.4833021,34.356 42.6056285,34.3530106 C44.727955,34.35 46.3789869,33.714 47.5587242,32.445 Z M76.8270169,32.445 L76.8135084,32.445 C78.0022514,31.179 78.5966229,29.517 78.5966229,27.459 C78.5966229,25.401 78.0067542,23.7375 76.8270169,22.4685 C75.6472795,21.1995 73.9962477,20.565 71.8739212,20.565 C69.7515947,20.565 68.1005629,21.1995 66.9208255,22.4685 C65.7410882,23.7405 65.1527205,25.404 65.1557109,27.459 C65.1587242,29.514 65.7470919,31.176 66.9208255,32.445 C68.097561,33.72 69.7485929,34.356 71.8739212,34.3530106 C73.9992495,34.35 75.6502814,33.714 76.8270169,32.445 Z" id="合併形狀" fill-rule="nonzero"></path>
                    </g>
                    <g id="logo_icon">
                        <path d="M21.0617085,0.00146677046 C32.5572196,0.00146677046 41.8761726,9.26916961 41.8761726,20.7014604 L41.8761726,41.3985332 L21.0617085,41.3985332 C13.5670248,41.4870754 6.60323764,37.5614365 2.82995899,31.1208979 C-0.943319662,24.6803594 -0.943319662,16.7196406 2.82995899,10.2791021 C6.60323764,3.83856352 13.5670248,-0.0870753766 21.0617085,0.00146677046 Z M33.2032348,32.7732925 L33.2032348,20.7014604 C33.2044224,15.8174131 30.2469879,11.4136237 25.7101047,9.54376106 C21.1732216,7.67389839 15.9504531,8.70624191 12.477392,12.1593672 C9.00433093,15.6124925 7.96501509,20.8062881 9.8441204,25.3186726 C11.7232257,29.8310571 16.1506524,32.7732925 21.0617085,32.7732925 L33.2032348,32.7732925 Z M26.550947,19.06579 C27.9531579,19.0648409 29.2321537,18.2690144 29.8462523,17.0153602 C31.6215264,21.2023011 30.1476661,26.0529757 26.3379802,28.5615601 C22.5282944,31.0701445 17.4624738,30.5256889 14.2796621,27.2655769 C11.0968505,24.0054648 10.6990781,18.9536341 13.3328331,15.2405593 C15.9665881,11.5274845 20.8854466,10.205476 25.041333,12.0937447 C23.4673098,12.80179 22.6033502,14.5060676 22.9670136,16.1856214 C23.3306771,17.8651752 24.8233949,19.0647731 26.550947,19.06579 Z" id="合併形狀" fill-rule="nonzero"></path>
                    </g>
                </g>
            </g>
        </g>
    </g>
</svg>