<?xml version="1.0" encoding="UTF-8"?>
<svg width="30px" height="30px" viewBox="0 0 30 30" version="1.1" xmlns="http://www.w3.org/2000/svg" xmlns:xlink="http://www.w3.org/1999/xlink">
    <!-- Generator: Sketch 55.2 (78181) - https://sketchapp.com -->
    <title>logo_icon_wcopy</title>
    <desc>Created with Sketch.</desc>
    <g id="web-登入...等" stroke="none" stroke-width="1" fill="none" fill-rule="evenodd">
        <g id="044_contact-reseller" transform="translate(-448.000000, -112.000000)" fill="#FFFFFF">
            <g id="群組" transform="translate(448.000000, 98.000000)">
                <g id="logo_icon_w" transform="translate(0.000000, 14.000000)">
                    <g id="logo_icon">
                        <path d="M15.0645833,0.0902097902 C23.2188375,0.0902097902 29.8291667,6.74676499 29.8291667,14.958042 L29.8291667,29.8237762 L15.0645833,29.8237762 C9.74828594,29.8873719 4.80857596,27.06777 2.13202918,22.441834 C-0.544517606,17.815898 -0.544517606,12.098088 2.13202918,7.47215198 C4.80857596,2.84621597 9.74828594,0.0266141291 15.0645833,0.0902097902 Z M23.6770836,23.6286713 L23.6770836,14.958042 C23.677926,11.4500604 21.5800921,8.28702555 18.3618882,6.94399112 C15.1436843,5.60095668 11.4389529,6.34244049 8.97536314,8.82265802 C6.5117734,11.3028756 5.77454254,15.0333347 7.10747174,18.2743684 C8.44040094,21.515402 11.5809627,23.6286713 15.0645833,23.6286713 L23.6770836,23.6286713 Z M18.9583333,13.7832168 C19.9529811,13.7825351 20.8602271,13.2109304 21.2958333,12.3104895 C22.5551106,15.3177723 21.5096389,18.8017838 18.807267,20.603582 C16.104895,22.4053802 12.5114933,22.0143234 10.2537898,19.6727382 C7.99608636,17.331153 7.71392951,13.7026605 9.58216379,11.0357334 C11.4503981,8.36880638 14.9395533,7.41926988 17.8875,8.77552448 C16.7709785,9.28408014 16.1581353,10.5081826 16.4160972,11.7145271 C16.6740591,12.9208716 17.7329073,13.7824864 18.9583333,13.7832168 Z" id="合併形狀" fill-rule="nonzero"></path>
                    </g>
                </g>
            </g>
        </g>
    </g>
</svg>